#!OML:ASF I:\Random Stuff\random\construction\7_22_03\Session 2\subj1.ASF
:FULLY-SPECIFIED
:DEGREES
911
root 4.0607 17.8215 -12.3196 40.5682 -10.2328 -8.85018
lowerback 41.4072 -4.25442 -1.92395
upperback 10.9573 -6.44429 -4.1807
thorax -7.80794 -2.90955 -0.841308
lowerneck -24.8948 -1.15036 -5.05831
upperneck 33.5674 1.14414 -1.76532
head 16.2105 -0.504506 0.329686
rclavicle -1.04958e-013 6.67916e-014
rhumerus -15.8975 29.9017 -55.0684
rradius 131.389
rwrist 0.107408
rhand -46.0213 21.3764
rfingers 7.12502
rthumb -18.7661 -7.7384
lclavicle -1.04958e-013 6.67916e-014
lhumerus 51.4105 -5.40238 -2.85869
lradius 121.223
lwrist 88.5097
lhand -25.5785 -479.942
lfingers 7.12502
lthumb -179.047 -329.92
rfemur -61.5398 -4.95039 36.0892
rtibia 30.5634
rfoot -9.75922 8.36389
rtoes -58.2054
lfemur -56.6979 11.355 1.9221
ltibia 37.2906
lfoot -15.0636 6.98455
ltoes -62.5077
912
root 4.0556 17.8263 -12.3292 40.5804 -10.0408 -8.90934
lowerback 41.5792 -4.25939 -2.20312
upperback 10.9743 -6.56948 -4.29006
thorax -7.82878 -2.96085 -0.759591
lowerneck -24.6195 -1.14252 -5.36904
upperneck 33.4752 1.29424 -1.83577
head 16.1018 -0.490159 0.384434
rclavicle 4.77083e-014 -5.96354e-014
rhumerus -15.8843 29.7439 -55.2057
rradius 131.368
rwrist -0.271264
rhand -46.2018 21.6571
rfingers 7.12502
rthumb -18.9397 -7.44077
lclavicle 4.77083e-014 -5.96354e-014
lhumerus 51.7091 -5.28718 -2.53561
lradius 120.923
lwrist 88.4662
lhand -25.1496 -479.287
lfingers 7.12502
lthumb -178.633 -329.262
rfemur -61.541 -5.0305 36.3029
rtibia 30.4861
rfoot -9.68474 8.41544
rtoes -58.155
lfemur -56.7253 11.2467 2.14566
ltibia 37.2177
lfoot -14.9799 7.00474
ltoes -62.5285
913
root 4.05171 17.8256 -12.3365 40.5887 -9.86731 -8.96703
lowerback 41.741 -4.25248 -2.47537
upperback 10.979 -6.67877 -4.39156
thorax -7.85865 -3.00489 -0.679531
lowerneck -24.2827 -1.2115 -5.79685
upperneck 33.4313 1.38518 -1.92604
head 16.0056 -0.517584 0.438283
rclavicle -4.77083e-014 8.18993e-014
rhumerus -15.9518 29.6309 -55.3515
rradius 131.369
rwrist -0.664929
rhand -46.369 21.9426
rfingers 7.12502
rthumb -19.1005 -7.13948
lclavicle -4.77083e-014 8.18993e-014
lhumerus 52.0623 -5.19322 -2.12342
lradius 120.676
lwrist 88.5401
lhand -24.9687 -479.046
lfingers 7.12502
lthumb -178.458 -329.02
rfemur -61.5307 -5.10556 36.4871
rtibia 30.3996
rfoot -9.62219 8.46327
rtoes -58.0736
lfemur -56.7663 11.1973 2.31262
ltibia 37.1623
lfoot -14.956 6.98991
ltoes -62.625
914
root 4.04829 17.8255 -12.3414 40.5795 -9.73004 -9.0118
lowerback 41.9098 -4.21001 -2.78137
upperback 10.9413 -6.76336 -4.49188
thorax -7.93338 -3.03626 -0.589144
lowerneck -23.7687 -1.29036 -6.20645
upperneck 33.398 1.47741 -2.13297
head 15.8771 -0.557251 0.439394
rclavicle 1.90833e-014 4.92986e-014
rhumerus -16.1944 29.5931 -55.5379
rradius 131.384
rwrist -0.967129
rhand -46.9242 22.159
rfingers 7.12502
rthumb -19.6344 -6.86947
lclavicle 1.90833e-014 4.92986e-014
lhumerus 52.5263 -5.17891 -1.66719
lradius 120.469
lwrist 88.8434
lhand -25.1677 -479.493
lfingers 7.12502
lthumb -178.65 -329.469
rfemur -61.5084 -5.20346 36.6578
rtibia 30.3258
rfoot -9.61251 8.53257
rtoes -58.0703
lfemur -56.7553 11.0944 2.51001
ltibia 37.1171
lfoot -14.9336 6.98976
ltoes -62.638
915
root 4.04378 17.8283 -12.3474 40.6165 -9.62295 -9.06398
lowerback 42.0332 -4.16941 -3.1042
upperback 10.902 -6.86197 -4.63375
thorax -7.99975 -3.07318 -0.530313
lowerneck -23.3335 -1.32449 -6.49504
upperneck 33.392 1.60963 -2.40169
head 15.7807 -0.575234 0.401033
rclavicle 4.77083e-014 1.19271e-014
rhumerus -16.4257 29.5639 -55.79
rradius 131.348
rwrist -1.22729
rhand -47.6429 22.3103
rfingers 7.12502
rthumb -20.3253 -6.64612
lclavicle 4.77083e-014 1.19271e-014
lhumerus 52.9738 -5.18132 -1.31171
lradius 120.113
lwrist 89.0757
lhand -25.1871 -479.766
lfingers 7.12502
lthumb -178.669 -329.742
rfemur -61.5293 -5.23019 36.8026
rtibia 30.2773
rfoot -9.62149 8.54268
rtoes -58.1539
lfemur -56.7859 11.0623 2.6751
ltibia 37.0896
lfoot -14.8624 6.95253
ltoes -62.5624
916
root 4.03832 17.8277 -12.3555 40.7149 -9.55802 -9.11776
lowerback 42.1087 -4.13287 -3.47517
upperback 10.8976 -6.98199 -4.78426
thorax -8.00771 -3.12161 -0.451856
lowerneck -23.204 -1.35325 -6.79802
upperneck 33.49 1.78576 -2.66237
head 15.8049 -0.582534 0.375324
rclavicle -8.5875e-014 7.55382e-015
rhumerus -16.5339 29.518 -56.0259
rradius 131.295
rwrist -1.52527
rhand -47.9578 22.7137
rfingers 7.12502
rthumb -20.6279 -6.21015
lclavicle -8.5875e-014 7.55382e-015
lhumerus 53.1995 -5.08906 -0.948686
lradius 119.75
lwrist 89.3357
lhand -25.1378 -479.538
lfingers 7.12502
lthumb -178.621 -329.514
rfemur -61.6145 -5.18663 36.9284
rtibia 30.2442
rfoot -9.60144 8.51383
rtoes -58.2255
lfemur -56.9038 11.2105 2.70348
ltibia 37.0569
lfoot -14.8123 6.83603
ltoes -62.5569
